<svg width="12" height="13" viewBox="0 0 12 13" fill="none" xmlns="http://www.w3.org/2000/svg">
<path fill-rule="evenodd" clip-rule="evenodd" d="M10.5518 5.71291H9.07035V3.40753C9.07035 1.75975 7.71735 0.421875 6.0469 0.421875C4.37644 0.421875 3.02345 1.75975 3.02345 3.40753V5.71291H1.48149C1.06576 5.71291 0.755859 5.97746 0.755859 6.39319V11.6162C0.755859 12.0244 1.06576 12.5157 1.48149 12.5157H10.5518C10.9676 12.5157 11.3379 12.0244 11.3379 11.6162V6.39319C11.3379 5.97746 10.9676 5.71291 10.5518 5.71291ZM4.53517 5.71291V3.40753C4.53517 2.58364 5.21545 1.91848 6.0469 1.91848C6.87835 1.91848 7.55862 2.58364 7.55862 3.40753V5.71291H4.53517Z" fill="#0D7DC2"/>
</svg>
