<svg width="15" height="17" viewBox="0 0 15 17" fill="none" xmlns="http://www.w3.org/2000/svg">
<path fill-rule="evenodd" clip-rule="evenodd" d="M13.71 7.01562H11.75V3.96563C11.75 1.78562 9.96 0.015625 7.75 0.015625C5.54 0.015625 3.75 1.78562 3.75 3.96563V7.01562H1.71C1.16 7.01562 0.75 7.36562 0.75 7.91563V14.8256C0.75 15.3656 1.16 16.0156 1.71 16.0156H13.71C14.26 16.0156 14.75 15.3656 14.75 14.8256V7.91563C14.75 7.36562 14.26 7.01562 13.71 7.01562ZM5.75 7.01562V3.96563C5.75 2.87563 6.65 1.99563 7.75 1.99563C8.85 1.99563 9.75 2.87563 9.75 3.96563V7.01562H5.75Z" fill="#6C7079"/>
</svg>
