<svg width="12" height="13" viewBox="0 0 12 13" fill="none" xmlns="http://www.w3.org/2000/svg">
<path fill-rule="evenodd" clip-rule="evenodd" d="M10.5518 6.16604H9.07035V3.86066C9.07035 2.21288 7.71735 0.875 6.0469 0.875C4.37644 0.875 3.02345 2.21288 3.02345 3.86066V6.16604H1.48149C1.06576 6.16604 0.755859 6.43059 0.755859 6.84631V12.0693C0.755859 12.4775 1.06576 12.9688 1.48149 12.9688H10.5518C10.9676 12.9688 11.3379 12.4775 11.3379 12.0693V6.84631C11.3379 6.43059 10.9676 6.16604 10.5518 6.16604ZM4.53517 6.16604V3.86066C4.53517 3.03677 5.21545 2.37161 6.0469 2.37161C6.87835 2.37161 7.55862 3.03677 7.55862 3.86066V6.16604H4.53517Z" fill="#0D7DC2"/>
</svg>
