<svg width="15" height="17" viewBox="0 0 15 17" fill="none" xmlns="http://www.w3.org/2000/svg">
<path fill-rule="evenodd" clip-rule="evenodd" d="M13.71 7.46875H11.75V4.41875C11.75 2.23875 9.96 0.46875 7.75 0.46875C5.54 0.46875 3.75 2.23875 3.75 4.41875V7.46875H1.71C1.16 7.46875 0.75 7.81875 0.75 8.36875V15.2788C0.75 15.8188 1.16 16.4688 1.71 16.4688H13.71C14.26 16.4688 14.75 15.8188 14.75 15.2788V8.36875C14.75 7.81875 14.26 7.46875 13.71 7.46875ZM5.75 7.46875V4.41875C5.75 3.32875 6.65 2.44875 7.75 2.44875C8.85 2.44875 9.75 3.32875 9.75 4.41875V7.46875H5.75Z" fill="#6C7079"/>
</svg>
